<?xml version="1.0" standalone="no"?>
<!DOCTYPE svg PUBLIC "-//W3C//DTD SVG 20010904//EN"
 "http://www.w3.org/TR/2001/REC-SVG-20010904/DTD/svg10.dtd">
<svg version="1.0" xmlns="http://www.w3.org/2000/svg"
 width="500.000000pt" height="500.000000pt" viewBox="0 0 500.000000 500.000000"
 preserveAspectRatio="xMidYMid meet">

<g transform="translate(0.000000,500.000000) scale(0.100000,-0.100000)"
fill="#000000" stroke="none">
<path d="M1915 3669 c-393 -11 -654 -36 -756 -71 -113 -39 -219 -153 -254
-276 -84 -287 -97 -1104 -26 -1530 42 -246 153 -372 368 -417 204 -42 1012
-69 1667 -55 553 12 830 36 949 80 93 35 177 110 222 199 64 127 98 428 98
896 2 502 -39 814 -120 940 -58 88 -169 161 -283 184 -231 48 -1117 72 -1865
50z m350 -724 c39 -21 94 -53 123 -72 29 -18 54 -33 56 -33 3 0 43 -22 91 -50
48 -27 88 -50 90 -50 2 0 32 -18 67 -39 61 -37 197 -114 301 -170 26 -14 47
-29 47 -32 0 -8 -155 -98 -500 -291 -25 -14 -116 -66 -204 -117 -87 -50 -163
-91 -167 -91 -10 0 -12 983 -2 993 3 4 11 3 17 -2 6 -5 43 -26 81 -46z"/>
</g>
</svg>
